<svg width="24" height="24" viewBox="0 0 24 24" fill="none" xmlns="http://www.w3.org/2000/svg">
<path fill-rule="evenodd" clip-rule="evenodd" d="M21.9449 11.3307C21.9449 11.5282 21.8661 11.7175 21.7255 11.8574L12.5486 21.0597C12.3936 21.2133 12.2373 21.2818 12.0425 21.2818C11.8423 21.2818 11.6654 21.2064 11.5145 21.059L10.8679 20.4514C10.8403 20.4257 10.8181 20.3946 10.8028 20.3601C10.7874 20.3256 10.7792 20.2884 10.7785 20.2506C10.7779 20.2128 10.7849 20.1753 10.799 20.1403C10.8132 20.1053 10.8343 20.0735 10.861 20.0469L21.4553 9.44571C21.635 9.26537 21.9463 9.39222 21.9463 9.64457V11.3314L21.9449 11.3307ZM10.1733 18.2702L9.648 18.7399C9.56492 18.8133 9.45719 18.8527 9.34634 18.8502C9.23549 18.8476 9.12968 18.8033 9.05006 18.7262L2.064 11.9054C1.88777 11.7339 1.78971 11.4987 1.78971 11.2539V9.97988C1.78971 9.52045 2.34926 9.28937 2.67977 9.61234L10.0951 16.8535C10.224 16.9817 10.4414 17.2443 10.4414 17.5618C10.4414 17.7648 10.3947 18.0521 10.1739 18.2715L10.1733 18.2702ZM3.92914 5.07085L6.33326 2.69485C6.3873 2.64142 6.46023 2.61145 6.53623 2.61145C6.61223 2.61145 6.68516 2.64142 6.7392 2.69485L14.7867 10.6512C14.9913 10.8527 15.1538 11.0929 15.2647 11.3577C15.3756 11.6226 15.4327 11.9069 15.4327 12.1941C15.4327 12.4812 15.3756 12.7655 15.2647 13.0304C15.1538 13.2952 14.9913 13.5354 14.7867 13.7369L12.3847 16.1109C12.3305 16.1635 12.258 16.193 12.1824 16.193C12.1068 16.193 12.0343 16.1635 11.9801 16.1109L3.93051 8.15314C3.72574 7.95196 3.56338 7.71177 3.45302 7.44677C3.34266 7.18177 3.28655 6.89734 3.288 6.61028C3.288 6.02742 3.51566 5.47885 3.92914 5.07017V5.07085ZM13.4537 6.42994L15.9648 3.94765C16.2088 3.707 16.5052 3.52621 16.8309 3.41949C17.1565 3.31276 17.5025 3.28301 17.8416 3.33257C18.3367 3.39977 18.7865 3.65485 19.1397 4.00319L21.6823 6.51771C21.7089 6.54388 21.7301 6.57509 21.7445 6.60953C21.759 6.64397 21.7664 6.68094 21.7664 6.71828C21.7664 6.75562 21.759 6.79259 21.7445 6.82703C21.7301 6.86147 21.7089 6.89268 21.6823 6.91885L17.8149 10.7424C17.761 10.7957 17.6883 10.8257 17.6126 10.8257C17.5368 10.8257 17.4641 10.7957 17.4103 10.7424L13.4537 6.83108C13.4272 6.80486 13.4061 6.77363 13.3917 6.7392C13.3773 6.70477 13.3699 6.66783 13.3699 6.63051C13.3699 6.59319 13.3773 6.55624 13.3917 6.52181C13.4061 6.48738 13.4272 6.45615 13.4537 6.42994ZM23.4377 5.95885L17.8382 0.32571C17.7266 0.213977 17.5753 0.151076 17.4174 0.150819C17.2595 0.150562 17.108 0.212969 16.9961 0.324338L12.5534 4.75885C12.2105 5.10171 11.651 5.10171 11.3054 4.76159L6.86194 0.373024C6.75073 0.264354 6.60148 0.2034 6.44599 0.203144C6.2905 0.202887 6.14106 0.26335 6.02949 0.371652L0.306514 5.94514C0.109714 6.13714 0 6.39771 0 6.66994V11.9499C0 12.2187 0.108343 12.4779 0.301714 12.6686L11.4535 23.6894C11.5651 23.7991 11.7153 23.8606 11.8718 23.8606C12.0283 23.8606 12.1785 23.7991 12.2901 23.6894L23.4329 12.6679C23.6249 12.4773 23.7333 12.2187 23.7333 11.9493V6.67199C23.7333 6.40457 23.6283 6.14879 23.4384 5.95885H23.4377Z" fill="#4B4D52"/>
</svg>
